<svg xmlns="http://www.w3.org/2000/svg" xmlns:xlink="http://www.w3.org/1999/xlink" version="1.1" width="500" height="484" viewBox="0,0,89.8,87"><g transform="translate(-195.1,-136.5)"><g data-paper-data="{&quot;isPaintingLayer&quot;:true}" fill-rule="nonzero" stroke-linecap="butt" stroke-linejoin="miter" stroke-miterlimit="10" stroke-dasharray="" stroke-dashoffset="0" style="mix-blend-mode: normal"><path d="M241.25,204.91403v-6.99539h43.16667v6.99539z" fill="#ff4052" stroke="none" stroke-width="0"/><path d="M195.1,223.5v-87h89.8v87z" fill="none" stroke="none" stroke-width="0"/><g><path d="M210.4449,192.73102l2.01965,-2.01965l16.66212,16.66212l-2.01965,2.01965z" fill="#b6c8cc" stroke="none" stroke-width="0"/><path d="M213.83503,189.34089l24.52433,-24.52433l16.66212,16.66212l-13.2714,13.2714l-3.96875,0.03125l-0.03125,3.96875l-7.25293,7.25293z" fill="#b6c8cc" stroke="none" stroke-width="0"/><path d="M239.65771,163.5182l2.01965,-2.01965l16.66212,16.66212l-2.01965,2.01965z" fill="#b6c8cc" stroke="none" stroke-width="0"/><path d="M245.50028,162.86903l5.33765,-5.33765l12.26217,12.26217l-3.53439,7.14091z" fill="#b6c8cc" stroke="none" stroke-width="0"/><path d="M250.47727,151.83307l1.22621,-1.22621l16.66212,16.66212l-1.22621,1.22621z" fill="#b6c8cc" stroke="none" stroke-width="0"/><path d="M265.26401,177.29511l1.22622,1.22622l-16.29695,16.29695l-2.44497,-0.00747z" fill="#b6c8cc" stroke="none" stroke-width="0"/><path d="M265.22664,177.34446l1.87829,-8.95245l1.21732,-1.16639l1.23285,1.69434l-1.66238,8.49831l-1.44585,1.14641z" fill="#b6c8cc" stroke="none" stroke-width="0"/><path d="M242.2175,152.93737c1.82454,-1.82454 4.78269,-1.82454 6.60722,0c1.82454,1.82454 1.82454,4.78269 0,6.60722c-1.82454,1.82454 -4.78269,1.82454 -6.60722,0c-1.82454,-1.82454 -1.82454,-4.78269 0,-6.60722z" fill="none" stroke="#b6c8cc" stroke-width="2.5"/></g></g></g></svg>